<?xml version="1.0" encoding="iso-8859-1"?>
<!-- Uploaded to: SVG Repo, www.svgrepo.com, Generator: SVG Repo Mixer Tools -->
<svg fill="#000000" version="1.1" id="Capa_1" xmlns="http://www.w3.org/2000/svg"
	xmlns:xlink="http://www.w3.org/1999/xlink"
	viewBox="0 0 60 60" xml:space="preserve">
<g>
	<g>
		<path d="M37,14c0-0.6-0.4-1-1-1h-6c-0.6,0-1,0.4-1,1v2c-1.9-1.7-5.3-4-10-4h-2c-1.7,0-3,1.3-3,3H3.5C1.4,15,0,16,0,17.5v2
			c0,0.8,0.4,1.6,1,2.2c-0.6,0.4-1,1.1-1,1.8v2c0,0.8,0.4,1.6,1,2.2c-0.6,0.4-1,1.1-1,1.8v2c0,0.8,0.4,1.6,1,2.3
			c-0.6,0.5-1,1.3-1,2.2v2c0,1.7,1.3,3,3,3h13h13v1c0,0.6,0.4,1,1,1h6c0.6,0,1-0.4,1-1v-2h23v-2H37V17h23v-2H37V14z M17,14h2
			c0.6,0,1,0.4,1,1v13c0,0.6-0.4,1-1,1h-2c-0.6,0-1-0.4-1-1V17v-2C16,14.4,16.4,14,17,14z M17,31.5c0,0.8-0.3,1.5-0.5,1.5H16H3.5
			C3,33,2,32,2,31.5v-2C2,29.3,2.7,29,3.5,29H12h2.2c0.4,1.2,1.5,2,2.8,2V31.5z M2,19.5v-2C2,17.3,2.7,17,3.5,17H14v4h-2H3.5
			C3,21,2,20,2,19.5z M2,25.5v-2C2,23.3,2.7,23,3.5,23H12h2v4h-2H3.5C3,27,2,26,2,25.5z M3,39c-0.6,0-1-0.4-1-1v-2c0-0.6,0.4-1,1-1
			h0.5H16c0.6,0,1,0.4,1,1v2c0,0.6-0.4,1-1,1H3z M18.8,39c0.1-0.3,0.2-0.6,0.2-1v-2c0-0.8-0.3-1.4-0.7-1.9c0.4-0.6,0.7-1.5,0.7-2.6
			V31c1.7,0,3-1.3,3-3V15c0-0.2,0-0.4-0.1-0.6c3.9,1,6.4,3.6,7.1,4.4V39H18.8z M35,41h-4v-1V18.5V15h4v1v23V41z"/>
		<rect x="39" y="33" width="3" height="2"/>
		<rect x="44" y="33" width="3" height="2"/>
		<path d="M59,47H1c-0.6,0-1,0.4-1,1v11c0,0.6,0.4,1,1,1h58c0.6,0,1-0.4,1-1V48C60,47.4,59.6,47,59,47z M58,58h-7v-5h-2v5h-8v-5h-2
			v5h-8v-5h-2v5h-8v-5h-2v5h-8v-5H9v5H2v-9h56V58z"/>
		<path d="M1,8h6h43c0.1,0,0.1,0,0.2,0c0.2,0,0.3-0.1,0.4-0.2l8.7-2.9C59.7,4.8,60,4.4,60,4s-0.3-0.8-0.7-0.9l-8.7-2.9
			C50.5,0.1,50.3,0,50.1,0H50l0,0H7H1C0.4,0,0,0.4,0,1v6C0,7.6,0.4,8,1,8z M51,5.6V2.4L55.8,4L51,5.6z M49,3H11v2h38v1H8V2h41V3z
			 M2,2h4v4H2V2z"/>
	</g>
</g>
</svg>